PathFileType	4	(X/Y/Z)	Driver_Leg-20171019_Master.trc										
DataRate	CameraRate	NumFrames	NumMarkers	Units	OrigDataRate	OrigDataStartFrame	OrigNumFrames						
100	100	6	4	m	100	1	6						
Frame#	Time	Marker_toes_r			Marker_heel_r			Marker_tibia_r			Marker_femur_bottom_r		
		X1	Y1	Z1	X2	Y2	Z2	X3	Y3	Z3	X4	Y4	Z4
													
1	0	0.07705471	0.52858406	0	0.715213	-0.36743	0.0399657	0.484428	0.025093	0.0549823	0.079607	-0.0936659	0.139444
2	0.01	0.11781132	0.445461731	-0.00149528	0.715213	-0.36743	0.0399657	0.484428	0.025093	0.0549823	0.079607	-0.0936659	0.139444
3	0.02	0.158567931	0.362339402	-0.00299056	0.715213	-0.36743	0.0399657	0.484428	0.025093	0.0549823	0.079607	-0.0936659	0.139444
4	0.03	0.199324542	0.279217073	-0.00448584	0.715213	-0.36743	0.0399657	0.484428	0.025093	0.0549823	0.079607	-0.0936659	0.139444
5	0.04	0.240081153	0.196094744	-0.00598112	0.715213	-0.36743	0.0399657	0.484428	0.025093	0.0549823	0.079607	-0.0936659	0.139444
6	0.05	0.280837763	0.112972415	-0.0074764	0.715213	-0.36743	0.0399657	0.484428	0.025093	0.0549823	0.079607	-0.0936659	0.139444
